<svg xmlns="http://www.w3.org/2000/svg" width="900" height="675" viewBox="0 0 900 675">
  <defs>
    <linearGradient id="sky" x1="0" y1="0" x2="0" y2="1"><stop offset="0" stop-color="#f5dcc5"/><stop offset="1" stop-color="#f7f2ea"/></linearGradient>
    <linearGradient id="m1" x1="0" y1="0" x2="1" y2="1"><stop offset="0" stop-color="#93a79f"/><stop offset="1" stop-color="#6d827a"/></linearGradient>
    <linearGradient id="m2" x1="0" y1="0" x2="1" y2="1"><stop offset="0" stop-color="#667d76"/><stop offset="1" stop-color="#425751"/></linearGradient>
  </defs>
  <rect width="900" height="675" fill="url(#sky)"/>
  <path d="M0 280 C120 220 220 230 330 280 C430 326 540 260 650 275 C755 290 825 250 900 220 L900 675 L0 675 Z" fill="url(#m1)"/>
  <path d="M0 370 C150 310 285 330 390 385 C500 440 625 365 735 390 C815 408 862 382 900 360 L900 675 L0 675 Z" fill="url(#m2)"/>
  <path d="M95 560 C245 525 390 545 520 570 C665 598 785 586 900 555 L900 675 L95 675 Z" fill="#c79f7d"/>
  <path d="M160 585 C310 555 470 570 625 595 C730 610 810 598 900 582" stroke="#8d684d" stroke-width="11" fill="none" stroke-linecap="round"/>
  <circle cx="460" cy="300" r="45" fill="#efc39c"/>
  <path d="M425 280 Q460 230 500 282 Q482 250 455 250 Q436 250 425 280" fill="#4a382f"/>
  <rect x="428" y="345" width="70" height="118" rx="22" fill="#c66d43"/>
  <rect x="396" y="360" width="40" height="100" rx="15" fill="#ece5da"/>
  <rect x="497" y="360" width="40" height="100" rx="15" fill="#ece5da"/>
  <rect x="443" y="462" width="19" height="88" rx="9" fill="#43555f"/>
  <rect x="469" y="462" width="19" height="88" rx="9" fill="#43555f"/>
  <rect x="431" y="548" width="40" height="14" rx="6" fill="#6d4934"/>
  <rect x="467" y="548" width="40" height="14" rx="6" fill="#6d4934"/>
  <path d="M402 385 Q370 410 347 435" stroke="#efc39c" stroke-width="17" stroke-linecap="round" fill="none"/>
  <path d="M527 384 Q560 408 589 427" stroke="#efc39c" stroke-width="17" stroke-linecap="round" fill="none"/>
  <rect x="580" y="398" width="18" height="64" rx="8" fill="#4f5d64" transform="rotate(8 580 398)"/>
  <rect x="383" y="385" width="32" height="74" rx="12" fill="#5d6f78"/>
  <path d="M343 322 L605 322" stroke="#fff" stroke-width="8" opacity=".36"/>
  <path d="M369 318 L369 350 M579 318 L579 350" stroke="#fff" stroke-width="6" opacity=".36"/>
</svg>